<?xml version="1.0" encoding="utf-8"?>
<svg width="80" height="15" viewBox="0 0 80 15" xmlns="http://www.w3.org/2000/svg">
  <defs/>
  <path id="Outer" fill="#666666" fill-rule="evenodd" stroke="none" d="M 0 15 L 80 15 L 80 0 L 0 0 Z"/>
  <path id="Inner" fill="#ffffff" fill-rule="evenodd" stroke="none" d="M 1 14 L 79 14 L 79 1 L 1 1 Z"/>
  <path id="Left" fill-rule="evenodd" stroke="none" d="M 2 13 L 39 13 L 39 2 L 2 2 Z" style="fill: rgb(255, 232, 204);"/>
  <path id="Right" fill-rule="evenodd" stroke="none" d="M 40 13 L 78 13 L 78 2 L 40 2 Z" style="fill: rgb(214, 51, 108);"/>
  <path id="PEOPLE" fill-rule="evenodd" stroke="none" d="M 33 10 L 33 5 L 36 5 L 36 6 L 34 6 L 34 7 L 36 7 L 36 8 L 34 8 L 34 9 L 36 9 L 36 10 Z M 28 10 L 28 5 L 29 5 L 29 9 L 31 9 L 31 10 Z M 22 10 L 22 5 L 25 5 L 25 6 L 26 6 L 26 7 L 25 7 L 25 8 L 23 8 L 23 10 Z M 23 7 L 24.959999 7 L 24.959999 6 L 23 6 Z M 17 10 L 17 9 L 16 9 L 16 6 L 17 6 L 17 5 L 19 5 L 19 6 L 20 6 L 20 9 L 19 9 L 19 10 Z M 17 8.96 L 19 8.96 L 19 6.04 L 17 6.04 Z M 11 10 L 11 5 L 14 5 L 14 6 L 12 6 L 12 7 L 14 7 L 14 8 L 12 8 L 12 9 L 14 9 L 14 10 Z M 5 10 L 5 5 L 8 5 L 8 6 L 9 6 L 9 7 L 8 7 L 8 8 L 6 8 L 6 10 Z M 6 7 L 7.96 7 L 7.96 6 L 6 6 Z" style="fill: rgb(214, 51, 108);"/>
  <path id="PLEDGE" fill-rule="evenodd" stroke="none" d="M 72 10 L 72 5 L 75 5 L 75 6 L 73 6 L 73 7 L 75 7 L 75 8 L 73 8 L 73 9 L 75 9 L 75 10 Z M 67 6 L 67 5 L 70 5 L 70 6 Z M 66 9 L 66 6 L 67 6 L 67 9 Z M 69 9 L 69 8 L 68 8 L 68 7 L 70 7 L 70 9 Z M 67 10 L 67 9 L 69 9 L 69 10 Z M 60 10 L 60 5 L 63 5 L 63 6 L 64 6 L 64 9 L 63 9 L 63 10 Z M 61 9 L 62.959999 9 L 62.959999 6 L 61 6 Z M 55 10 L 55 5 L 58 5 L 58 6 L 56 6 L 56 7 L 58 7 L 58 8 L 56 8 L 56 9 L 58 9 L 58 10 Z M 50 10 L 50 5 L 51 5 L 51 9 L 53 9 L 53 10 Z M 44 10 L 44 5 L 47 5 L 47 6 L 48 6 L 48 7 L 47 7 L 47 8 L 45 8 L 45 10 Z M 45 7 L 46.959999 7 L 46.959999 6 L 45 6 Z" style="fill: rgb(255, 232, 204);"/>
</svg>